<svg width="17" height="17" viewBox="0 0 17 17" fill="none" xmlns="http://www.w3.org/2000/svg">
<path d="M12.625 4.375H12.6325M4.75 1H12.25C14.3211 1 16 2.67893 16 4.75V12.25C16 14.3211 14.3211 16 12.25 16H4.75C2.67893 16 1 14.3211 1 12.25V4.75C1 2.67893 2.67893 1 4.75 1ZM11.5 8.0275C11.5926 8.65168 11.4859 9.28916 11.1953 9.84926C10.9047 10.4094 10.4449 10.8636 9.88122 11.1473C9.31758 11.431 8.67884 11.5297 8.05584 11.4294C7.43284 11.3292 6.85732 11.0351 6.41113 10.5889C5.96494 10.1427 5.6708 9.56716 5.57055 8.94416C5.4703 8.32116 5.56905 7.68242 5.85274 7.11878C6.13644 6.55514 6.59064 6.09531 7.15074 5.80468C7.71084 5.51406 8.34832 5.40744 8.9725 5.5C9.60919 5.59441 10.1986 5.8911 10.6538 6.34623C11.1089 6.80136 11.4056 7.39081 11.5 8.0275Z" stroke="#F4CE14" stroke-width="2" stroke-linecap="round" stroke-linejoin="round"/>
</svg>
