<svg width="20" height="17" viewBox="0 0 20 17" fill="none" xmlns="http://www.w3.org/2000/svg">
<path d="M18.9999 1.0084C18.2165 1.57306 17.349 2.00493 16.4309 2.28739C15.9381 1.70851 15.2833 1.29821 14.5548 1.11199C13.8264 0.925773 13.0596 0.972615 12.3581 1.24618C11.6566 1.51975 11.0542 2.00685 10.6325 2.64159C10.2107 3.27633 9.98996 4.0281 10 4.79521V5.63115C8.5622 5.66924 7.13746 5.34343 5.85271 4.68273C4.56796 4.02203 3.46308 3.04695 2.63646 1.84434C2.63646 1.84434 -0.636236 9.36781 6.72733 12.7116C5.04233 13.8802 3.03504 14.4662 1.00011 14.3835C8.36368 18.5632 17.3636 14.3835 17.3636 4.77013C17.3628 4.53728 17.3409 4.30501 17.2981 4.0763C18.1332 3.23492 18.7224 2.17262 18.9999 1.0084Z" stroke="#F4CE14" stroke-width="2" stroke-linecap="round" stroke-linejoin="round"/>
</svg>
