<svg width="97" height="16" viewBox="0 0 97 16" fill="none" xmlns="http://www.w3.org/2000/svg">
<path d="M8.15338 1.00867L10.3611 5.48126L15.2981 6.20287L11.7257 9.68235L12.5688 14.5979L8.15338 12.2759L3.73795 14.5979L4.58102 9.68235L1.00867 6.20287L5.94566 5.48126L8.15338 1.00867Z" fill="#F4CE14" stroke="#F4CE14" stroke-width="2" stroke-linecap="round" stroke-linejoin="round"/>
<path d="M28.3267 1.00867L30.5344 5.48126L35.4714 6.20287L31.899 9.68235L32.7421 14.5979L28.3267 12.2759L23.9113 14.5979L24.7543 9.68235L21.182 6.20287L26.119 5.48126L28.3267 1.00867Z" fill="#F4CE14" stroke="#F4CE14" stroke-width="2" stroke-linecap="round" stroke-linejoin="round"/>
<path d="M48.5 1.00867L50.7077 5.48126L55.6447 6.20287L52.0723 9.68235L52.9154 14.5979L48.5 12.2759L44.0846 14.5979L44.9276 9.68235L41.3553 6.20287L46.2923 5.48126L48.5 1.00867Z" fill="#F4CE14" stroke="#F4CE14" stroke-width="2" stroke-linecap="round" stroke-linejoin="round"/>
<path d="M68.6733 1.00867L70.881 5.48126L75.818 6.20287L72.2457 9.68235L73.0887 14.5979L68.6733 12.2759L64.2579 14.5979L65.1009 9.68235L61.5286 6.20287L66.4656 5.48126L68.6733 1.00867Z" fill="#F4CE14" stroke="#F4CE14" stroke-width="2" stroke-linecap="round" stroke-linejoin="round"/>
<path d="M88.8466 1.00867L91.0543 5.48126L95.9913 6.20287L92.419 9.68235L93.262 14.5979L88.8466 12.2759L84.4312 14.5979L85.2742 9.68235L81.7019 6.20287L86.6389 5.48126L88.8466 1.00867Z" fill="#F4CE14" stroke="#F4CE14" stroke-width="2" stroke-linecap="round" stroke-linejoin="round"/>
</svg>
