<svg width="97" height="16" viewBox="0 0 97 16" fill="none" xmlns="http://www.w3.org/2000/svg">
<path d="M8.15341 1.00866L10.3611 5.48125L15.2981 6.20287L11.7258 9.68234L12.5688 14.5979L8.15341 12.2759L3.73798 14.5979L4.58105 9.68234L1.0087 6.20287L5.94569 5.48125L8.15341 1.00866Z" fill="#F4CE14" stroke="#F4CE14" stroke-width="2" stroke-linecap="round" stroke-linejoin="round"/>
<path d="M28.3267 1.00866L30.5344 5.48125L35.4714 6.20287L31.8991 9.68234L32.7421 14.5979L28.3267 12.2759L23.9113 14.5979L24.7544 9.68234L21.182 6.20287L26.119 5.48125L28.3267 1.00866Z" fill="#F4CE14" stroke="#F4CE14" stroke-width="2" stroke-linecap="round" stroke-linejoin="round"/>
<path d="M48.5 1.00866L50.7077 5.48125L55.6447 6.20287L52.0724 9.68234L52.9154 14.5979L48.5 12.2759L44.0846 14.5979L44.9276 9.68234L41.3553 6.20287L46.2923 5.48125L48.5 1.00866Z" fill="#F4CE14" stroke="#F4CE14" stroke-width="2" stroke-linecap="round" stroke-linejoin="round"/>
<path d="M68.6733 1.00866L70.881 5.48125L75.818 6.20287L72.2457 9.68234L73.0887 14.5979L68.6733 12.2759L64.2579 14.5979L65.1009 9.68234L61.5286 6.20287L66.4656 5.48125L68.6733 1.00866Z" fill="#F4CE14" stroke="#F4CE14" stroke-width="2" stroke-linecap="round" stroke-linejoin="round"/>
<path d="M88.8466 1.00866L91.0543 5.48125L95.9913 6.20287L92.419 9.68234L93.262 14.5979L88.8466 12.2759L84.4312 14.5979L85.2742 9.68234L81.7019 6.20287L86.6389 5.48125L88.8466 1.00866Z" fill="#F4CE14" stroke="#F4CE14" stroke-width="2" stroke-linecap="round" stroke-linejoin="round"/>
</svg>
