<svg width="97" height="16" viewBox="0 0 97 16" fill="none" xmlns="http://www.w3.org/2000/svg">
<path d="M8.08333 1L10.2721 5.43417L15.1667 6.14958L11.625 9.59917L12.4608 14.4725L8.08333 12.1704L3.70583 14.4725L4.54167 9.59917L1 6.14958L5.89458 5.43417L8.08333 1Z" fill="#F4CE14" stroke="#F4CE14" stroke-width="2" stroke-linecap="round" stroke-linejoin="round"/>
<path d="M28.0833 1L30.2721 5.43417L35.1667 6.14958L31.625 9.59917L32.4608 14.4725L28.0833 12.1704L23.7058 14.4725L24.5417 9.59917L21 6.14958L25.8946 5.43417L28.0833 1Z" fill="#F4CE14" stroke="#F4CE14" stroke-width="2" stroke-linecap="round" stroke-linejoin="round"/>
<path d="M48.0833 1L50.2721 5.43417L55.1667 6.14958L51.625 9.59917L52.4608 14.4725L48.0833 12.1704L43.7058 14.4725L44.5417 9.59917L41 6.14958L45.8946 5.43417L48.0833 1Z" fill="#F4CE14" stroke="#F4CE14" stroke-width="2" stroke-linecap="round" stroke-linejoin="round"/>
<path d="M68.0833 1L70.2721 5.43417L75.1667 6.14958L71.625 9.59917L72.4608 14.4725L68.0833 12.1704L63.7058 14.4725L64.5417 9.59917L61 6.14958L65.8946 5.43417L68.0833 1Z" fill="#F4CE14" stroke="#F4CE14" stroke-width="2" stroke-linecap="round" stroke-linejoin="round"/>
<path d="M88.0833 1L90.2721 5.43417L95.1667 6.14958L91.625 9.59917L92.4608 14.4725L88.0833 12.1704L83.7058 14.4725L84.5417 9.59917L81 6.14958L85.8946 5.43417L88.0833 1Z" fill="#F4CE14" stroke="#F4CE14" stroke-width="2" stroke-linecap="round" stroke-linejoin="round"/>
</svg>
